<svg width="600" height="600" xmlns="http://www.w3.org/2000/svg">
  <!-- Main ridge system - upper left to center -->
  <path d="M0,180 C40,160 80,145 130,150 C180,155 220,175 270,200 C320,225 360,235 400,220 C440,205 480,180 520,170 C560,160 590,165 600,170" fill="none" stroke="#CA8A04" stroke-width="1"/>
  <path d="M0,200 C35,185 75,168 125,172 C175,176 215,198 265,220 C315,242 358,250 398,238 C438,226 475,202 518,192 C558,183 588,187 600,192" fill="none" stroke="#CA8A04" stroke-width="1"/>
  <path d="M0,222 C30,210 70,195 120,198 C170,201 210,222 258,242 C306,262 350,268 392,258 C434,248 470,228 514,218 C554,210 585,212 600,216" fill="none" stroke="#CA8A04" stroke-width="1"/>
  <path d="M0,248 C28,238 65,225 115,226 C165,227 208,248 252,265 C296,282 342,286 384,278 C426,270 464,252 508,244 C548,238 582,240 600,243" fill="none" stroke="#CA8A04" stroke-width="1"/>

  <!-- Secondary peak - upper right -->
  <path d="M380,40 C410,35 445,50 470,75 C495,100 505,135 495,165 C485,195 460,210 430,205 C400,200 375,178 365,148 C355,118 360,82 380,55" fill="none" stroke="#CA8A04" stroke-width="1"/>
  <path d="M390,60 C412,56 438,68 458,88 C478,108 486,135 478,158 C470,181 452,192 430,188 C408,184 390,168 382,145 C374,122 378,96 390,72" fill="none" stroke="#CA8A04" stroke-width="1"/>
  <path d="M400,82 C415,78 432,87 445,102 C458,117 464,138 458,155 C452,172 440,180 426,177 C412,174 400,162 395,145 C390,128 393,108 400,92" fill="none" stroke="#CA8A04" stroke-width="1"/>
  <path d="M410,105 C418,102 428,108 436,118 C444,128 448,142 444,153 C440,164 432,170 424,167 C416,164 410,155 407,143 C404,131 406,118 410,108" fill="none" stroke="#CA8A04" stroke-width="1"/>

  <!-- Valley system - lower center -->
  <path d="M80,380 C120,365 165,355 215,360 C265,365 305,385 340,410 C375,435 395,455 420,460 C445,465 475,455 510,440 C545,425 575,415 600,410" fill="none" stroke="#CA8A04" stroke-width="1"/>
  <path d="M60,400 C100,388 148,378 200,382 C252,386 295,405 332,428 C369,451 392,468 418,474 C444,480 472,472 506,458 C540,444 572,434 600,430" fill="none" stroke="#CA8A04" stroke-width="1"/>
  <path d="M40,422 C82,412 132,402 188,405 C244,408 288,426 326,448 C364,470 390,484 416,490 C442,496 468,490 500,478 C532,466 568,456 600,452" fill="none" stroke="#CA8A04" stroke-width="1"/>
  <path d="M20,446 C65,438 118,428 178,430 C238,432 282,450 322,470 C362,490 390,502 418,507 C446,512 470,508 498,498 C526,488 562,480 600,476" fill="none" stroke="#CA8A04" stroke-width="1"/>

  <!-- Small knob - left side -->
  <path d="M30,60 C55,42 90,38 118,52 C146,66 160,95 155,125 C150,155 128,172 100,170 C72,168 48,148 38,120 C28,92 22,70 35,55" fill="none" stroke="#CA8A04" stroke-width="1"/>
  <path d="M48,72 C65,60 88,57 108,67 C128,77 138,98 135,120 C132,142 118,154 98,152 C78,150 62,136 55,115 C48,94 46,78 52,68" fill="none" stroke="#CA8A04" stroke-width="1"/>
  <path d="M62,88 C72,80 88,78 100,85 C112,92 118,106 116,120 C114,134 105,142 94,140 C83,138 74,128 70,114 C66,100 64,90 66,84" fill="none" stroke="#CA8A04" stroke-width="1"/>

  <!-- Gentle slopes - right edge wrapping -->
  <path d="M520,280 C540,275 565,285 580,305 C595,325 600,350 595,375 C590,400 575,418 555,420 C535,422 518,408 510,388 C502,368 505,340 515,315 C522,298 530,285 525,278" fill="none" stroke="#CA8A04" stroke-width="1"/>
  <path d="M530,298 C544,294 560,302 570,316 C580,330 584,350 580,370 C576,390 566,402 552,403 C538,404 526,394 520,378 C514,362 516,342 524,324 C530,312 536,302 532,296" fill="none" stroke="#CA8A04" stroke-width="1"/>

  <!-- Scattered contours - bottom left -->
  <path d="M0,520 C30,510 70,505 110,515 C150,525 180,545 195,565 C210,585 205,600 195,600" fill="none" stroke="#CA8A04" stroke-width="1"/>
  <path d="M0,540 C25,532 60,528 95,535 C130,542 155,558 168,575 C181,592 178,600 172,600" fill="none" stroke="#CA8A04" stroke-width="1"/>
  <path d="M0,562 C20,556 48,553 78,558 C108,563 132,575 142,588 C152,600 150,600 148,600" fill="none" stroke="#CA8A04" stroke-width="1"/>

  <!-- Ridge continuation - bottom right -->
  <path d="M420,540 C450,530 485,528 520,538 C555,548 580,568 595,588 C602,598 600,600 600,600" fill="none" stroke="#CA8A04" stroke-width="1"/>
  <path d="M440,558 C462,550 490,548 518,556 C546,564 568,580 582,595 C588,600 590,600 590,600" fill="none" stroke="#CA8A04" stroke-width="1"/>
  <path d="M460,576 C478,570 498,568 518,574 C538,580 554,592 565,600" fill="none" stroke="#CA8A04" stroke-width="1"/>

  <!-- Isolated hilltop - center -->
  <path d="M240,310 C260,298 288,295 310,308 C332,321 342,345 335,368 C328,391 308,403 285,400 C262,397 245,378 242,355 C239,332 242,315 248,305" fill="none" stroke="#CA8A04" stroke-width="1"/>
  <path d="M255,322 C268,314 286,312 302,321 C318,330 326,348 321,365 C316,382 302,390 286,388 C270,386 258,372 256,355 C254,338 256,326 260,318" fill="none" stroke="#CA8A04" stroke-width="1"/>
  <path d="M268,338 C276,332 288,331 298,337 C308,343 314,356 310,367 C306,378 296,384 286,382 C276,380 268,370 267,358 C266,346 268,340 272,335" fill="none" stroke="#CA8A04" stroke-width="1"/>
</svg>
